<svg width="64" height="31" viewBox="0 0 64 31" fill="none" xmlns="http://www.w3.org/2000/svg">
<path d="M36.7393 8.39128L37.4163 7.37565C39.1216 5.10192 41.4991 3.42239 44.212 2.57495C46.9249 1.72751 49.8356 1.75513 52.5319 2.6539C55.2282 3.55267 57.5734 5.27702 59.2353 7.5827C60.8971 9.88838 61.7913 12.6585 61.7913 15.5007C61.7913 18.3428 60.8971 21.1129 59.2353 23.4186C57.5734 25.7243 55.2282 27.4486 52.5319 28.3474C49.8356 29.2462 46.9249 29.2738 44.212 28.4264C41.4991 27.5789 39.1216 25.8994 37.4163 23.6257L26.583 7.37565C24.8777 5.10192 22.5002 3.42239 19.7874 2.57495C17.0745 1.72751 14.1637 1.75513 11.4674 2.6539C8.77112 3.55267 6.42594 5.27702 4.7641 7.5827C3.10226 9.88838 2.20801 12.6585 2.20801 15.5007C2.20801 18.3428 3.10226 21.1129 4.7641 23.4186C6.42594 25.7243 8.77112 27.4486 11.4674 28.3474C14.1637 29.2462 17.0745 29.2738 19.7874 28.4264C22.5002 27.5789 24.8777 25.8994 26.583 23.6257L27.4876 22.2715" stroke="white" stroke-width="3" stroke-linecap="round" stroke-linejoin="round"/>
</svg>
