<svg width="60" height="49" viewBox="0 0 60 49" fill="none" xmlns="http://www.w3.org/2000/svg">
<path d="M38.1253 1.625L56.9886 1.625L54.2641 5.7117L53.3528 7.0787L54.7968 7.8622C56.8892 8.99739 58.2913 11.1626 58.2913 13.6667V34.2522L52.3673 36.2269L44.6053 22.4111L44.6034 22.4077C43.8418 21.0602 42.3684 20.7573 41.2509 21.1252C40.1202 21.4975 39.1319 22.6271 39.3445 24.1721L41.78 46.5549L18.1095 37.0867L21.0574 16.4255C21.6466 12.3182 23.6965 8.56086 26.8314 5.84245C29.9661 3.12417 33.9755 1.62686 38.1247 1.625C38.1249 1.625 38.1251 1.625 38.1253 1.625ZM17.2368 4.04167H8.33301C7.67185 4.04167 7.12467 3.49449 7.12467 2.83333C7.12467 2.17218 7.67185 1.625 8.33301 1.625H19.1896C18.4902 2.3871 17.8374 3.1932 17.2368 4.04167ZM2.91634 23.2917H11.5832L11.2327 25.7083H2.91634C2.25518 25.7083 1.70801 25.1612 1.70801 24.5C1.70801 23.8388 2.25519 23.2917 2.91634 23.2917ZM12.7789 14.875H5.62467C4.96352 14.875 4.41634 14.3278 4.41634 13.6667C4.41634 13.0055 4.96352 12.4583 5.62467 12.4583H13.2839C13.0761 13.2445 12.9064 14.049 12.7789 14.875Z" stroke="white" stroke-width="3"/>
</svg>
