<svg width="47" height="56" viewBox="0 0 47 56" fill="none" xmlns="http://www.w3.org/2000/svg">
<path d="M5.53517 24.738C2.61829 19.8089 1.16121 17.3443 2.13079 15.3834C3.10579 13.4226 5.86558 13.2628 11.3879 12.9459L12.8152 12.8647C14.386 12.7726 15.1687 12.7293 15.8539 12.3636C16.5364 11.998 17.0429 11.3561 18.0558 10.067L18.9766 8.89698C22.5408 4.36594 24.3229 2.10177 26.3704 2.45115C28.4179 2.80052 29.3766 5.53052 31.2914 10.9932M6.72142 33.5889C5.22371 39.2493 4.4735 42.0768 5.92246 43.6368C7.36871 45.1968 10.05 44.4574 15.4152 42.9732L18.0585 41.6895M37.1712 17.3416C42.29 19.4703 44.8493 20.5374 45.1391 22.7122C45.3883 24.5701 43.8472 26.187 40.6975 28.9143" stroke="white" stroke-width="3" stroke-linecap="round"/>
<path d="M34.9802 50.002C39.0021 51.0474 41.0143 51.5728 42.1004 50.4705C43.1837 49.3682 42.6231 47.3722 41.5018 43.3747L41.2093 42.3455C40.8925 41.208 40.7327 40.6393 40.8112 40.0786C40.8925 39.5153 41.2039 39.0224 41.8241 38.0311L42.3929 37.132C44.5785 33.6518 45.67 31.913 44.9387 30.5291C44.2102 29.1451 42.141 29.0314 38 28.8093L36.9275 28.7497C35.7521 28.6874 35.1616 28.6549 34.6498 28.3976C34.1352 28.1403 33.756 27.6853 32.9977 26.7753L32.3071 25.9493C29.6339 22.7534 28.2987 21.1555 26.7604 21.3993C25.2248 21.6457 24.5071 23.5741 23.0716 27.4307L22.6979 28.4274C22.2916 29.5243 22.0858 30.0714 21.6877 30.4749C21.2923 30.8784 20.7452 31.0924 19.6564 31.5203L18.6625 31.9076C14.8248 33.4107 12.9046 34.1636 12.6852 35.6993C12.4685 37.2349 14.0935 38.5403 17.3462 41.1457L18.1858 41.8228C19.1121 42.5622 19.5752 42.9332 19.8406 43.4397C20.1114 43.9461 20.1521 44.5338 20.236 45.7066L20.3146 46.7736C20.6125 50.8984 20.7641 52.9622 22.1643 53.6664C23.5646 54.3705 25.2898 53.2466 28.7375 51.0041" stroke="white" stroke-width="3" stroke-linecap="round"/>
</svg>
